<svg height="512" viewBox="0 0 128 128" width="512" xmlns="http://www.w3.org/2000/svg"><g><g><path d="m120.106 23.815a26.1 26.1 0 0 0 -19.962-9.283h-2.317a42.8 42.8 0 0 0 -33.827 16.577 42.806 42.806 0 0 0 -33.828-16.577h-1.736a26.8 26.8 0 0 0 -19.076 7.681 26.109 26.109 0 0 0 -.427 36.41l50.1 52.711a6.86 6.86 0 0 0 9.944 0l50.1-52.711a26.106 26.106 0 0 0 1.029-34.808z" fill="#fd5b6e"/><path d="m105.809 59.807a1.751 1.751 0 0 1 -1.268-2.956l6.009-6.323a14.339 14.339 0 0 0 .571-19.141 1.75 1.75 0 0 1 2.677-2.256 17.839 17.839 0 0 1 -.711 23.809l-6.009 6.322a1.746 1.746 0 0 1 -1.269.545z" fill="#fc80aa"/></g><g><path d="m78.662 98.6-10.962 11.528a5.112 5.112 0 0 1 -7.408 0l-50.092-52.711a24.267 24.267 0 0 1 .4-33.972 1.75 1.75 0 1 0 -2.482-2.465 27.751 27.751 0 0 0 -.453 38.849l50.094 52.71a8.611 8.611 0 0 0 12.482 0l10.959-11.531a1.75 1.75 0 1 0 -2.538-2.408z"/><path d="m121.444 22.687a27.8 27.8 0 0 0 -21.3-9.905h-2.316a44.876 44.876 0 0 0 -33.828 15.561 44.876 44.876 0 0 0 -33.828-15.561h-1.736a29.908 29.908 0 0 0 -9.259 1.454 1.75 1.75 0 1 0 1.081 3.329 26.427 26.427 0 0 1 8.178-1.283h1.736a41.329 41.329 0 0 1 32.445 15.9 1.812 1.812 0 0 0 2.766 0 41.328 41.328 0 0 1 32.445-15.9h2.316a24.356 24.356 0 0 1 17.656 41.135l-16.539 17.4a1.75 1.75 0 0 0 2.537 2.411l16.539-17.4a27.826 27.826 0 0 0 1.107-37.141z"/><path d="m91.9 84.669-3.877 4.079a1.75 1.75 0 0 0 2.537 2.412l3.877-4.079a1.75 1.75 0 1 0 -2.537-2.412z"/><path d="m104.541 56.851a1.75 1.75 0 1 0 2.537 2.411l6.009-6.322a17.839 17.839 0 0 0 .711-23.809 1.75 1.75 0 0 0 -2.677 2.256 14.339 14.339 0 0 1 -.571 19.141z"/></g></g></svg>