<?xml version="1.0" encoding="iso-8859-1"?>
<!-- Generator: Adobe Illustrator 19.0.0, SVG Export Plug-In . SVG Version: 6.00 Build 0)  -->
<svg version="1.1" id="Capa_1" xmlns="http://www.w3.org/2000/svg" xmlns:xlink="http://www.w3.org/1999/xlink" x="0px" y="0px"
	 viewBox="0 0 364.453 364.453" style="enable-background:new 0 0 364.453 364.453;" xml:space="preserve">
<path style="fill:#ED7D45;" d="M323.327,356.452c-8.8,0-17.6-3.2-24-9.6l-88-88l48-48l88,88c13.6,13.6,13.6,34.4,0,48l0,0
	C340.927,353.253,332.127,356.452,323.327,356.452z"/>
<path style="fill:#FFFFFF;" d="M124.127,210.852c-48,0-87.2-39.2-87.2-87.2s39.2-87.2,87.2-87.2s87.2,39.2,87.2,87.2
	c0,23.2-8.8,45.6-25.6,61.6C168.927,201.252,147.327,210.852,124.127,210.852z"/>
<path style="fill:#E5E5E5;" d="M185.727,61.252c-16-16.8-38.4-25.6-61.6-25.6c-4,0-8.8,0-12.8,0.8c48,7.2,80.8,51.2,73.6,99.2
	c-5.6,38.4-35.2,68-73.6,73.6c4,0.8,8.8,0.8,12.8,0.8c48,0,87.2-39.2,87.2-87.2C211.327,100.452,201.727,78.052,185.727,61.252
	L185.727,61.252z"/>
<path style="fill:#FFD98D;" d="M124.127,239.652c-64,0-116-52-116-116s52-116,116-116s116,52,116,116c0,30.4-12,60-33.6,81.6
	C184.127,226.852,154.527,239.652,124.127,239.652z M124.127,35.652c-48,0-87.2,39.2-87.2,87.2s39.2,87.2,87.2,87.2
	s87.2-39.2,87.2-87.2c0-23.2-8.8-45.6-25.6-61.6C168.927,45.252,147.327,35.652,124.127,35.652z"/>
<path style="fill:#FFFFFF;" d="M178.527,226.052l8-5.6c7.2-4.8,12.8-9.6,19.2-15.2c5.6-5.6,11.2-12,15.2-19.2l5.6-8l32.8,32.8
	l-48,48L178.527,226.052z"/>
<path style="fill:#DD603E;" d="M347.327,308.452c-13.6,12.8-34.4,12.8-48,0l-69.6-69.6l-19.2,19.2l88,88c13.6,12.8,34.4,12.8,48,0
	c11.2-11.2,13.6-29.6,4-43.2C349.727,305.253,348.927,306.852,347.327,308.452z"/>
<path style="fill:#E5E5E5;" d="M215.327,222.052l-13.6-12.8c-4.8,4-9.6,8-15.2,12l-8,5.6l32.8,32.8l48-48l-16-16L215.327,222.052z"
	/>
<g>
	<path style="fill:#281A10;" d="M191.327,55.652c-37.6-37.6-97.6-37.6-135.2,0s-37.6,97.6,0,135.2s97.6,37.6,135.2,0l0,0
		c37.6-36.8,37.6-96.8,0.8-133.6C192.127,56.452,191.327,56.452,191.327,55.652z M180.127,179.652c-31.2,31.2-80.8,31.2-112,0
		s-31.2-80.8,0-112s80.8-31.2,112,0l0,0C210.527,98.052,211.327,147.652,180.127,179.652
		C180.127,178.852,180.127,179.652,180.127,179.652z"/>
	<path style="fill:#281A10;" d="M236.127,176.452c28.8-61.6,2.4-136-59.2-164.8s-136-2.4-164.8,59.2s-3.2,135.2,58.4,164.8
		c33.6,16,72,16,105.6,0l116.8,116.8c16,16,43.2,16,59.2,0s16-43.2,0-59.2L236.127,176.452z M124.127,231.652
		c-60,0-108-48-108-107.2c0-60,48-108,107.2-108c60,0,108,48,108,107.2c0,28.8-11.2,56-31.2,76
		C180.127,219.652,152.127,230.852,124.127,231.652z M191.327,227.652c7.2-4.8,14.4-9.6,20-16c6.4-6.4,11.2-12.8,16-20l20,20
		l-36.8,36.8L191.327,227.652z M341.727,341.253c-10.4,9.6-26.4,9.6-36.8,0l-82.4-83.2l36-36l82.4,82.4
		C352.127,314.852,352.127,330.852,341.727,341.253L341.727,341.253z"/>
</g>
<g>
</g>
<g>
</g>
<g>
</g>
<g>
</g>
<g>
</g>
<g>
</g>
<g>
</g>
<g>
</g>
<g>
</g>
<g>
</g>
<g>
</g>
<g>
</g>
<g>
</g>
<g>
</g>
<g>
</g>
</svg>
